<?xml version="1.0" standalone="no"?>
<!DOCTYPE svg PUBLIC "-//W3C//DTD SVG 20010904//EN"
 "http://www.w3.org/TR/2001/REC-SVG-20010904/DTD/svg10.dtd">
<svg version="1.0" xmlns="http://www.w3.org/2000/svg"
 width="341.000000pt" height="426.000000pt" viewBox="0 0 341.000000 426.000000"
 preserveAspectRatio="xMidYMid meet">

<g transform="translate(0.000000,426.000000) scale(0.100000,-0.100000)"
fill="#bbd0e0" stroke="none">
<path d="M1651 4129 c-11 -18 -22 -53 -26 -79 -6 -41 -10 -48 -40 -58 -41 -15
-117 -81 -145 -126 -14 -24 -30 -36 -55 -40 -19 -4 -37 -11 -40 -16 -10 -16
14 -50 35 -50 19 0 20 -8 20 -185 l0 -185 -28 0 c-52 0 -70 -46 -30 -74 12 -9
33 -16 46 -16 23 0 24 -2 19 -50 -3 -27 -2 -50 1 -50 4 0 109 42 234 92 151
62 219 94 202 96 l-24 3 0 139 c0 139 0 140 26 157 24 15 29 15 53 2 26 -15
26 -16 29 -143 3 -127 3 -128 25 -122 12 3 25 6 30 6 4 0 7 73 7 163 0 159 0
162 23 172 33 15 28 48 -9 59 -20 6 -38 22 -50 43 -22 42 -71 86 -127 114 -54
27 -49 20 -58 80 -11 69 -32 99 -69 99 -23 0 -35 -7 -49 -31z m-87 -450 c26
-20 26 -22 26 -155 l0 -135 -62 3 -63 3 -3 128 c-3 124 -2 128 22 152 30 30
45 31 80 4z m182 -4 c24 -24 25 -28 22 -152 l-3 -128 -62 -3 -63 -3 0 133 c0
73 4 138 8 144 9 14 44 33 60 34 7 0 24 -11 38 -25z"/>
<path d="M1945 3405 c-16 -8 -91 -39 -165 -69 -74 -30 -189 -77 -255 -104
l-120 -49 -6 -74 c-4 -41 -10 -143 -14 -226 -8 -151 -7 -153 13 -153 11 0 24
5 27 10 13 21 86 50 251 100 194 59 243 79 271 109 l21 22 6 -53 c3 -29 8
-106 12 -170 5 -91 10 -118 22 -123 8 -3 17 -4 19 -2 2 2 -6 154 -17 337 -11
184 -19 334 -17 335 1 0 14 6 30 13 21 9 27 18 27 42 0 26 -5 31 -30 37 -16 3
-30 12 -30 19 0 17 -6 17 -45 -1z"/>
<path d="M1353 2353 c-11 -203 -19 -370 -17 -372 2 -2 67 16 145 40 l141 44
16 50 c12 35 25 54 44 63 34 16 74 2 90 -33 6 -14 16 -25 22 -25 6 0 67 18
135 39 l125 38 -3 64 c-1 35 -6 125 -11 199 -6 74 -10 138 -10 143 0 4 -8 7
-18 7 -16 0 -18 -8 -14 -88 4 -87 4 -89 -23 -110 -36 -28 -111 -56 -285 -104
-182 -50 -248 -73 -282 -98 -15 -11 -29 -20 -31 -20 -2 0 -2 21 0 48 12 136
30 468 26 475 -2 4 -10 7 -16 7 -9 0 -18 -98 -34 -367z"/>
<path d="M1692 2691 c-10 -6 -8 -10 10 -14 34 -10 64 -8 53 2 -16 15 -49 21
-63 12z"/>
<path d="M1651 2651 c-6 -11 -11 -56 -11 -100 l0 -81 70 0 70 0 0 89 c0 99 4
93 -77 106 -35 6 -43 3 -52 -14z"/>
<path d="M1910 2141 l-115 -37 -3 -77 -3 -78 -77 3 -77 3 -3 48 c-2 26 -7 47
-11 47 -14 0 -276 -82 -283 -89 -4 -3 -12 -85 -17 -181 -6 -96 -13 -201 -16
-232 -5 -52 -4 -58 13 -58 17 0 19 9 21 87 2 100 10 114 81 145 25 11 138 44
251 73 226 59 303 86 336 117 l22 21 5 -24 c5 -28 26 -401 26 -472 0 -42 -3
-49 -31 -66 l-31 -19 53 -11 c28 -6 53 -10 53 -9 1 2 -1 53 -4 113 -4 61 -5
112 -4 114 2 2 158 -114 300 -225 8 -6 14 -23 14 -37 0 -13 7 -27 15 -31 11
-4 15 2 15 23 0 30 14 41 55 41 21 0 24 -5 27 -42 5 -63 26 -60 30 4 3 50 5
53 33 58 28 5 20 13 -159 153 l-189 147 -73 0 -73 0 -5 43 c-6 46 -26 402 -26
455 0 41 -4 40 -150 -7z"/>
<path d="M1661 1644 c-18 -23 -21 -41 -21 -115 l0 -89 70 0 70 0 0 89 c0 103
-19 141 -70 141 -19 0 -36 -9 -49 -26z"/>
<path d="M1300 1453 c0 -16 -7 -136 -15 -268 -8 -132 -15 -247 -15 -256 0 -19
-34 -35 -112 -54 -33 -7 -83 -29 -111 -48 -29 -20 -78 -43 -109 -51 -36 -10
-62 -24 -68 -36 -9 -16 -21 -20 -62 -20 -46 0 -53 -3 -87 -40 -20 -22 -42 -40
-48 -40 -23 0 -63 -66 -63 -102 0 -31 -3 -36 -30 -42 -34 -6 -124 -86 -146
-128 -8 -15 -14 -50 -14 -78 0 -43 5 -56 29 -80 l29 -29 168 5 c148 6 175 9
219 29 36 17 44 24 28 24 -13 1 -23 5 -23 10 0 10 -38 34 -72 47 -10 3 -18 10
-18 15 0 14 58 10 89 -6 16 -8 32 -11 35 -7 10 10 216 9 209 0 -2 -5 13 -8 34
-7 48 2 195 -21 207 -32 6 -5 -6 -9 -29 -9 -21 0 -46 -7 -55 -15 -10 -9 -53
-19 -109 -24 -76 -8 -104 -7 -154 6 -56 14 -65 14 -97 0 -32 -14 -33 -15 -10
-16 14 -1 59 -10 100 -22 43 -12 147 -27 240 -35 209 -18 1028 -36 1052 -23
10 5 25 23 33 39 15 29 18 30 82 30 37 0 107 5 156 11 69 9 104 9 157 -1 129
-24 153 0 158 159 l4 106 -37 55 c-61 91 -65 102 -59 171 6 61 5 66 -25 103
-17 21 -31 45 -31 52 0 8 -9 23 -20 34 -32 32 -92 26 -205 -20 -55 -22 -103
-39 -108 -37 -5 1 30 18 78 37 l88 35 -2 90 c-2 162 -12 245 -28 245 -8 0 -12
-4 -9 -8 3 -5 6 -80 7 -168 l1 -159 -36 -14 c-20 -8 -38 -12 -40 -10 -3 2 -8
88 -12 192 -5 141 -10 187 -20 187 -10 0 -11 -41 -7 -196 l6 -197 -119 7
c-188 11 -170 -3 -178 134 -3 64 -9 163 -13 219 l-6 101 -62 12 c-55 10 -70 9
-131 -9 -38 -11 -161 -42 -274 -70 -117 -29 -230 -63 -264 -80 l-58 -29 7 169
c6 151 5 169 -9 169 -11 0 -16 -9 -16 -27z m481 -354 c33 -38 39 -67 39 -180
l0 -89 99 0 c96 0 100 -1 103 -22 3 -20 14 -25 83 -39 44 -10 83 -14 88 -10 4
4 -4 18 -18 31 -14 13 -25 27 -25 31 0 15 60 -13 71 -32 12 -23 41 -26 33 -4
-4 8 -2 15 2 15 5 0 35 4 67 10 36 5 67 6 82 0 18 -7 41 -4 82 9 32 10 90 20
128 23 l70 5 36 -61 c20 -34 35 -62 34 -64 -2 -2 -13 2 -26 8 -14 8 -41 10
-76 6 -37 -4 -64 -2 -89 9 -20 8 -63 15 -94 15 -32 0 -80 5 -107 11 -39 9 -54
8 -83 -4 l-35 -15 58 -1 c31 -1 57 -5 57 -11 0 -5 -6 -10 -14 -10 -24 0 -30
-22 -11 -36 10 -7 38 -16 64 -20 25 -3 60 -14 76 -24 30 -19 100 -33 212 -45
58 -6 63 -9 87 -46 14 -21 26 -43 26 -49 0 -5 -23 -10 -50 -10 -52 0 -96 16
-119 44 -14 16 -81 22 -95 9 -4 -4 -25 -8 -46 -8 -30 -1 -46 5 -62 22 -14 15
-33 23 -55 23 -18 0 -53 9 -77 21 -25 11 -70 24 -100 28 -34 5 -65 16 -79 28
-12 11 -39 26 -61 33 -21 7 -58 25 -81 41 -50 34 -70 36 -84 10 -16 -29 -40
-33 -70 -10 -47 35 -181 26 -181 -12 0 -5 18 -18 40 -29 52 -26 57 -40 35 -96
-9 -25 -15 -47 -13 -49 2 -3 40 10 84 28 65 27 91 32 144 31 36 -1 77 -5 93
-9 17 -5 33 -3 42 5 25 21 17 30 -23 28 -22 0 -44 2 -49 5 -6 4 -28 0 -48 -9
-20 -8 -42 -13 -48 -11 -7 2 6 10 27 17 l40 13 -60 19 c-43 13 -74 17 -113 12
-60 -6 -64 10 -5 19 24 4 57 -1 96 -14 56 -19 106 -20 168 -5 24 6 24 6 3 -3
-25 -11 -32 -27 -8 -17 8 3 36 -8 62 -24 31 -20 60 -30 85 -30 20 0 63 -11 95
-25 31 -14 63 -23 71 -20 34 13 82 -47 74 -92 -5 -34 -20 -28 -24 8 -4 42 -30
59 -56 36 -23 -21 -36 -22 -28 -1 8 21 -37 64 -67 64 -46 0 -87 -21 -87 -44 0
-12 5 -27 11 -33 13 -13 8 -65 -8 -70 -6 -3 -19 10 -28 27 -20 38 -52 54 -84
42 -13 -5 -50 -5 -85 0 -33 5 -100 10 -147 11 -80 2 -88 0 -128 -27 -41 -29
-44 -29 -92 -17 -28 7 -53 10 -57 6 -13 -12 27 -32 91 -45 107 -21 167 -40
167 -53 0 -10 -19 -11 -85 -5 -47 4 -91 10 -98 13 -6 4 -4 0 7 -9 18 -15 136
-46 174 -46 10 0 31 -14 47 -30 23 -24 27 -34 19 -47 -5 -9 -13 -15 -17 -14
-4 0 -29 1 -56 1 -46 0 -50 2 -56 29 -6 30 -43 51 -86 51 -11 0 -19 7 -19 15
0 9 -9 15 -25 15 -15 0 -39 7 -54 15 -16 8 -48 17 -72 21 -24 4 -51 13 -60 21
-14 12 -24 11 -70 -7 -29 -12 -57 -24 -62 -27 -14 -8 33 -32 64 -33 36 0 62
-21 53 -44 -9 -24 -59 -15 -94 18 -34 32 -85 38 -139 14 -37 -15 -50 -17 -72
-7 -15 6 -72 11 -126 11 -88 1 -100 3 -119 23 -16 18 -36 23 -102 29 -70 6
-82 10 -82 25 0 35 25 43 123 39 84 -3 96 -6 125 -30 30 -25 36 -26 106 -21
l75 6 21 -37 c25 -40 25 -41 60 -22 l25 14 -28 13 c-34 16 -31 39 6 52 24 8
33 5 56 -17 l28 -27 54 21 c30 12 55 23 57 25 2 2 -24 13 -57 26 -34 12 -61
25 -61 30 0 24 48 39 129 39 71 0 88 -3 106 -20 13 -12 29 -18 38 -14 14 5 10
11 -19 35 -34 26 -44 29 -116 29 -49 0 -92 -6 -116 -16 -32 -14 -48 -14 -126
-3 -75 11 -89 16 -96 35 -14 35 -57 62 -126 77 -36 9 -68 18 -72 21 -3 4 3 19
15 34 26 35 88 57 125 44 15 -6 36 -8 47 -5 10 3 22 0 25 -6 4 -6 15 -11 26
-11 10 0 20 -7 24 -15 7 -20 92 -20 126 0 33 19 97 19 150 0 23 -8 46 -15 51
-15 18 0 8 27 -21 55 -25 24 -38 28 -82 28 -29 0 -65 -3 -80 -8 -29 -8 -78 0
-78 13 0 4 21 20 47 35 41 25 51 27 107 21 46 -5 67 -12 84 -30 12 -13 35 -26
50 -29 15 -3 45 -9 67 -14 22 -5 42 -8 44 -5 8 8 -32 44 -50 44 -38 0 -27 18
15 24 l44 7 4 114 c2 96 6 118 24 142 45 60 100 65 145 12z m-521 -245 c0 -7
-158 -80 -192 -88 -38 -9 -35 4 6 32 43 29 186 73 186 56z m1337 -168 c84 -25
128 -44 120 -52 -7 -7 -163 15 -193 26 -14 6 -24 18 -24 30 0 25 -3 25 97 -4z
m-1760 -13 c-13 -13 -86 -41 -91 -35 -14 13 29 42 62 42 20 0 32 -3 29 -7z
m1038 -23 c15 -7 9 -9 -25 -9 -25 -1 -56 -4 -70 -7 -24 -5 -24 -5 -6 10 21 17
69 20 101 6z m-900 -45 c41 -19 81 -52 73 -61 -10 -10 -95 15 -109 32 -7 8
-31 14 -58 14 -52 0 -77 12 -66 30 9 15 114 5 160 -15z m-205 -9 c0 -24 48
-66 75 -66 38 0 64 -17 59 -37 -5 -16 -19 -18 -127 -18 l-122 1 -3 43 c-4 58
25 91 80 91 25 0 38 -5 38 -14z m1518 -58 c6 -9 6 -35 0 -78 l-10 -65 -39 3
c-44 5 -44 5 -27 32 10 15 10 29 1 62 -9 32 -9 45 0 50 19 12 64 9 75 -4z
m-1146 -28 c29 -6 63 -13 76 -16 40 -8 21 -44 -24 -44 -8 0 -23 9 -33 19 -11
11 -36 23 -55 27 -20 3 -36 10 -36 15 0 11 7 11 72 -1z m1443 -8 c3 -7 8 -39
12 -69 5 -45 3 -55 -8 -51 -8 2 -22 22 -33 44 -23 48 -33 56 -68 50 -31 -6
-33 -3 -18 24 8 15 21 19 60 18 32 -1 51 -6 55 -16z m-1555 -7 c14 -8 37 -14
51 -15 34 0 75 -32 64 -50 -6 -10 -9 -9 -16 2 -5 10 -32 18 -71 22 -65 7 -128
25 -128 36 0 24 62 27 100 5z m1678 -31 c50 -25 98 -55 107 -67 21 -30 21
-155 0 -164 -9 -3 -58 0 -110 8 -76 10 -95 16 -95 29 0 9 -5 21 -12 28 -9 9
-8 15 7 26 16 11 19 25 17 91 -1 42 -5 81 -8 86 -8 14 -5 12 94 -37z m-740 9
c42 -5 57 -11 69 -30 19 -29 23 -104 6 -110 -7 -3 -10 3 -6 16 3 13 -3 25 -21
36 -22 15 -33 16 -72 6 -52 -13 -65 -7 -90 42 -14 26 -19 28 -47 23 -87 -18
-100 -19 -95 -5 13 39 66 44 256 22z m153 -28 c12 -19 25 -35 30 -35 5 0 9
-20 9 -45 0 -25 -4 -45 -10 -45 -5 0 -10 9 -10 20 0 11 -4 20 -9 20 -14 0 -73
98 -66 110 12 20 36 10 56 -25z m-1473 7 c7 -5 11 -15 8 -23 -2 -8 -7 -26 -10
-41 -7 -31 -39 -39 -53 -14 -5 8 -23 21 -42 29 l-33 14 27 22 c28 21 79 28
103 13z m1771 -47 l35 -34 -25 -11 c-19 -8 -32 -8 -60 4 -46 19 -62 39 -54 67
6 18 12 20 39 15 17 -4 46 -22 65 -41z m-1781 -105 c46 -11 98 -20 115 -20 19
-1 44 -11 62 -25 35 -29 14 -35 -25 -8 -19 13 -48 18 -115 19 -49 1 -103 7
-118 13 -16 6 -46 11 -69 11 -39 0 -40 1 -33 28 3 15 13 37 21 49 l14 23 33
-36 c27 -29 46 -38 115 -54z m1717 39 c28 -14 51 -32 53 -43 3 -16 -1 -15 -34
8 -21 14 -64 31 -96 37 -32 6 -58 15 -58 20 0 16 86 2 135 -22z m176 -25 c54
-39 57 -45 33 -65 -13 -11 -18 -10 -32 8 -23 28 -59 46 -67 33 -10 -17 -22
-11 -29 13 -4 14 0 26 11 35 24 18 30 16 84 -24z m-493 -14 c21 -8 57 -10 95
-6 57 5 66 3 110 -24 30 -20 47 -37 47 -50 0 -19 -7 -20 -105 -20 -77 0 -114
4 -136 16 -21 10 -50 14 -87 12 l-57 -3 -1 30 c0 17 -2 36 -5 44 -3 10 6 17
26 21 30 6 51 2 113 -20z m-404 -4 c74 -16 92 -26 83 -49 -7 -17 -92 -7 -152
18 -25 11 -55 15 -82 12 -41 -4 -56 7 -36 26 11 12 115 8 187 -7z m715 -50 c9
-11 8 -15 -5 -20 -16 -6 -33 8 -34 27 0 12 27 8 39 -7z m-790 -27 c29 -12 61
-38 61 -51 0 -4 -27 -8 -60 -8 -43 0 -62 4 -66 14 -7 19 -57 36 -103 36 -34 1
-35 1 -16 16 16 12 35 14 89 9 38 -4 80 -11 95 -16z"/>
<path d="M2232 1273 c-27 -11 -42 -62 -42 -141 0 -74 2 -80 23 -86 25 -7 92
-8 98 -2 2 2 2 47 -1 99 -4 74 -10 100 -24 116 -19 21 -30 24 -54 14z"/>
</g>
</svg>
